<svg xmlns="http://www.w3.org/2000/svg" viewBox="0 0 1600 900" role="img" aria-labelledby="title desc">
  <title id="title">D2L wireframes and layout exploration</title>
  <desc id="desc">A portfolio thumbnail showing low fidelity screen planning for the D2L redesign.</desc>
  <rect width="1600" height="900" fill="#f7faf8"/>
  <rect x="64" y="60" width="1472" height="780" rx="34" fill="#ffffff" stroke="#d9e5df" stroke-width="3"/>
  <text x="110" y="132" font-family="Inter, Arial, sans-serif" font-size="42" font-weight="800" fill="#123f35">Wireframes and layout exploration</text>
  <text x="110" y="180" font-family="Inter, Arial, sans-serif" font-size="22" fill="#54736a">Planning the course home, assignment detail, upload modal, and confirmation state</text>
  <g fill="none" stroke="#17483d" stroke-width="4">
    <rect x="112" y="248" width="430" height="520" rx="24"/>
    <rect x="150" y="288" width="354" height="54" rx="12"/>
    <rect x="150" y="376" width="354" height="150" rx="16"/>
    <rect x="150" y="552" width="154" height="124" rx="16"/>
    <rect x="350" y="552" width="154" height="124" rx="16"/>
    <rect x="606" y="248" width="430" height="520" rx="24"/>
    <rect x="644" y="288" width="354" height="54" rx="12"/>
    <rect x="644" y="376" width="210" height="248" rx="16"/>
    <rect x="884" y="376" width="114" height="82" rx="14"/>
    <rect x="884" y="486" width="114" height="82" rx="14"/>
    <rect x="884" y="596" width="114" height="82" rx="14"/>
    <rect x="1100" y="248" width="390" height="520" rx="24"/>
    <rect x="1160" y="316" width="270" height="270" rx="26"/>
    <rect x="1160" y="632" width="112" height="48" rx="12"/>
    <rect x="1318" y="632" width="112" height="48" rx="12"/>
  </g>
  <g font-family="Inter, Arial, sans-serif" fill="#335e53">
    <text x="150" y="732" font-size="22">Course home hierarchy</text>
    <text x="644" y="732" font-size="22">Assignment detail + upload action</text>
    <text x="1160" y="732" font-size="22">Modal task focus</text>
  </g>
</svg>
